<svg xmlns="http://www.w3.org/2000/svg" width="40.919" height="40.919" viewBox="0 0 40.919 40.919">
  <g id="cereals" transform="translate(-4.75 -4.75)">
    <path id="Path_29" data-name="Path 29" d="M45.586,11.264l-2.353-4V5.354a.6.6,0,0,0-.6-.6H24.155a.6.6,0,0,0-.6.6V7.261l-2.353,4a.6.6,0,0,0-.083.306V29.664c-.073.011-.146.02-.217.037a2.156,2.156,0,0,0-2.2-1.029,2.147,2.147,0,0,0-3.324,0,2.2,2.2,0,0,0-.351-.028A2.144,2.144,0,0,0,13.84,29l-1.88-4.506a1.639,1.639,0,0,0-1.519-1.008,1.621,1.621,0,0,0-.632.127,1.64,1.64,0,0,0-.879,2.143L10.8,30.228a2.841,2.841,0,0,0-.7.762,3.216,3.216,0,0,0-2.842,1.8h-1.9a.6.6,0,0,0-.6.664l.794,7.942a4.733,4.733,0,0,0,4.725,4.277H45.065a.6.6,0,0,0,.6-.6V11.57a.6.6,0,0,0-.083-.306ZM29.3,33.451a.6.6,0,0,0-.6-.664H26.8a3.216,3.216,0,0,0-2.842-1.8,2.837,2.837,0,0,0-1.637-1.245v-9.8h22.14V37.612H28.887ZM44.461,12.174v6.561H22.321V12.174ZM42.024,5.959v.863H24.759V5.959ZM24.5,8.03H42.282l1.727,2.935H22.772Zm-9.483,21.82a.922.922,0,0,1,.373.077.6.6,0,0,0,.786-.291.941.941,0,0,1,1.709,0,.605.605,0,0,0,.786.291.924.924,0,0,1,.373-.077.952.952,0,0,1,.923.737.6.6,0,0,0,.852.412,1.618,1.618,0,0,1,.708-.161,1.639,1.639,0,0,1,1.519,1.01.606.606,0,0,0,.618.368c.084-.008.167-.018.251-.018a2.011,2.011,0,0,1,1.422.587H15.419l-1.1-2.63a.941.941,0,0,1,.694-.306Zm-4.738-5.127a.449.449,0,0,1,.565.232l3.266,7.831h-.935l-3.13-7.5a.431.431,0,0,1,.234-.563ZM10.147,32.2c.084,0,.167.009.251.018a.606.606,0,0,0,.619-.368,1.628,1.628,0,0,1,.276-.436l.574,1.374H8.725a2.011,2.011,0,0,1,1.422-.588Zm17.887,1.8-.086.863H6.108l-.086-.863ZM6.75,41.273l-.521-5.207h21.6l-.521,5.207a3.529,3.529,0,0,1-3.522,3.187H10.272A3.528,3.528,0,0,1,6.75,41.273Zm20.206,3.187a4.734,4.734,0,0,0,1.554-3.067l.257-2.573H44.461v5.64Z" fill="#4259ff"/>
    <path id="Path_30" data-name="Path 30" d="M114.354,34.53a.6.6,0,0,0,.6-.6V31.854a.6.6,0,1,0-1.209,0v2.072A.6.6,0,0,0,114.354,34.53Z" transform="translate(-71.361 -17.349)" fill="#4259ff"/>
    <path id="Path_31" data-name="Path 31" d="M83.206,58.5a.6.6,0,0,0-.526-.564,6.165,6.165,0,0,0,.526-2.674.6.6,0,0,0-.57-.57,6.3,6.3,0,0,0-2.276.362c0-.029,0-.058,0-.086a5.417,5.417,0,0,0-1.755-3.557.605.605,0,0,0-.806,0,5.427,5.427,0,0,0-1.755,3.557c0,.028,0,.057,0,.086a6.3,6.3,0,0,0-2.276-.361.6.6,0,0,0-.57.57,6.158,6.158,0,0,0,.529,2.675.6.6,0,0,0-.528.564,5.427,5.427,0,0,0,1.275,3.757A4.991,4.991,0,0,0,77.6,63.516v3.076a.6.6,0,1,0,1.209,0V63.516a4.994,4.994,0,0,0,3.12-1.261A5.419,5.419,0,0,0,83.206,58.5Zm-2.018-.453-.009.012a4.492,4.492,0,0,0-2.3,1.146c-.022.022-.041.046-.062.069a4.95,4.95,0,0,1,.236-1.285,2.923,2.923,0,0,1,.68-1.165c.05-.05.1-.1.153-.138a3.918,3.918,0,0,1,2.091-.763,3.885,3.885,0,0,1-.789,2.124Zm-2.981-5.3a3.725,3.725,0,0,1,.95,2.223,2.673,2.673,0,0,1-.176.909c-.035.031-.069.061-.1.094a3.8,3.8,0,0,0-.671.939,3.789,3.789,0,0,0-.67-.94c-.035-.033-.069-.062-.1-.094a2.673,2.673,0,0,1-.176-.907A3.726,3.726,0,0,1,78.207,52.742Zm-1.681,3.938c.052.044.1.091.155.142a2.916,2.916,0,0,1,.68,1.166A4.932,4.932,0,0,1,77.6,59.27c-.021-.022-.039-.046-.06-.067a4.489,4.489,0,0,0-2.287-1.143,3.853,3.853,0,0,1-.812-2.141,3.922,3.922,0,0,1,2.088.762ZM75.338,61.4a3.728,3.728,0,0,1-.9-2.245A3.076,3.076,0,0,1,77.583,62.3,3.734,3.734,0,0,1,75.338,61.4Zm3.494.9a3.074,3.074,0,0,1,3.142-3.143A3.07,3.07,0,0,1,78.832,62.3Z" transform="translate(-44.816 -30.446)" fill="#4259ff"/>
  </g>
</svg>
