<svg xmlns="http://www.w3.org/2000/svg" width="45.152" height="33.137" viewBox="0 0 45.152 33.137">
  <g id="eggs" transform="translate(0 -61.203)">
    <g id="Group_6" data-name="Group 6" transform="translate(0 61.203)">
      <g id="Group_5" data-name="Group 5" transform="translate(0 0)">
        <path id="Path_14" data-name="Path 14" d="M32.431,61.2c-3.769,0-7.538,4.24-9.816,8.795C20.1,64.972,16.255,61.2,12.8,61.2,6.91,61.2,0,72.039,0,81.148c0,6.6,4.4,13.192,12.721,13.192a11.915,11.915,0,0,0,9.816-4.554,13.167,13.167,0,0,0,9.894,4.554c8.324,0,12.721-6.675,12.721-13.192C45.23,72.039,38.32,61.2,32.431,61.2ZM12.8,92.77c-5.34,0-11.151-3.612-11.151-11.622,0-8.245,6.125-18.375,11.151-18.375,3.22,0,6.91,4.162,9.109,9.344V72.2a23.217,23.217,0,0,1,2.042,9.03C23.95,89.158,18.139,92.77,12.8,92.77Zm19.631,0a11.374,11.374,0,0,1-8.952-4.319,14.163,14.163,0,0,0,1.963-7.3A24.738,24.738,0,0,0,23.4,71.8c2.434-5.34,6.046-9.109,9.03-9.109,5.026,0,11.151,10.13,11.151,18.375C43.66,89.158,37.849,92.77,32.431,92.77Z" transform="translate(0 -61.203)" fill="#4259ff"/>
      </g>
    </g>
    <g id="Group_8" data-name="Group 8" transform="translate(3.687 74.11)">
      <g id="Group_7" data-name="Group 7" transform="translate(0 0)">
        <path id="Path_15" data-name="Path 15" d="M39.766,192.751a.817.817,0,0,0-1.021.471c-.079.236-2.277,5.968-.471,9.973a.825.825,0,0,0,.707.393.472.472,0,0,0,.314-.079.779.779,0,0,0,.393-1.021c-1.57-3.377.471-8.638.55-8.716A.817.817,0,0,0,39.766,192.751Z" transform="translate(-37.564 -192.702)" fill="#4259ff"/>
      </g>
    </g>
    <g id="Group_10" data-name="Group 10" transform="translate(25.755 65.295)">
      <g id="Group_9" data-name="Group 9" transform="translate(0 0)">
        <path id="Path_16" data-name="Path 16" d="M267.966,103.2a.706.706,0,0,0-1.1-.079c-.157.157-4.554,4.554-4.476,8.952a.844.844,0,0,0,.785.785.787.787,0,0,0,.785-.785c-.079-3.691,3.926-7.774,4-7.774A.759.759,0,0,0,267.966,103.2Z" transform="translate(-262.389 -102.895)" fill="#4259ff"/>
      </g>
    </g>
  </g>
</svg>
