<svg xmlns="http://www.w3.org/2000/svg" width="47.084" height="29.046" viewBox="0 0 47.084 29.046">
  <g id="fish" transform="translate(228 -5.021)">
    <g id="Group_2" data-name="Group 2" transform="translate(-228 5.021)">
      <g id="Group_1" data-name="Group 1" transform="translate(0 0)">
        <path id="Path_7" data-name="Path 7" d="M15.017,25.415l7.444,4.652V25.123a21.572,21.572,0,0,0,13.078-8.174c2.985,4.1,7.048,6.344,11.545,6.344V21.754c-3,0-4.617-3.172-4.617-6.156s1.618-6.156,4.617-6.156V7.9c-4.5,0-8.56,2.244-11.545,6.344A21.489,21.489,0,0,0,23.231,6.238V1.021L16.783,5.626A20.547,20.547,0,0,0,.269,15.181L0,15.6l.27.417A20.527,20.527,0,0,0,15.017,25.415ZM42.468,10.406a9.231,9.231,0,0,0-1.54,5.192,9.225,9.225,0,0,0,1.54,5.191,14.316,14.316,0,0,1-6-5.191A14.324,14.324,0,0,1,42.468,10.406ZM20.922,27.291,18.2,25.59a23.159,23.159,0,0,0,2.721-.2Zm.77-23.279V5.926C20.935,5.8,20.17,5.7,19.4,5.651ZM17.844,7.134A20.378,20.378,0,0,1,34.617,15.6a20.378,20.378,0,0,1-16.773,8.464,19.84,19.84,0,0,1-4.994-.635A11.108,11.108,0,0,0,16.305,15.6a11.578,11.578,0,0,0-.84-4.939l-1.4.645a9.973,9.973,0,0,1,.7,4.294,9.98,9.98,0,0,1-3.617,7.3,19.1,19.1,0,0,1-9.311-7.3A19.048,19.048,0,0,1,17.844,7.134Z" transform="translate(0 -1.021)" fill="#4259ff"/>
        <path id="Path_8" data-name="Path 8" d="M45.387,71a2.309,2.309,0,1,0-2.309-2.309A2.311,2.311,0,0,0,45.387,71Zm0-3.078a.77.77,0,1,1-.77.77A.771.771,0,0,1,45.387,67.921Z" transform="translate(-36.007 -55.653)" fill="#4259ff"/>
        <rect id="Rectangle_1" data-name="Rectangle 1" width="1.539" height="7.617" transform="translate(22.686 8.647) rotate(45)" fill="#4259ff"/>
        <rect id="Rectangle_2" data-name="Rectangle 2" width="13.059" height="1.539" transform="translate(27.623 11.273) rotate(135)" fill="#4259ff"/>
        <rect id="Rectangle_3" data-name="Rectangle 3" width="9.794" height="1.539" transform="translate(30.7 13.582) rotate(135)" fill="#4259ff"/>
      </g>
    </g>
  </g>
</svg>
