<svg xmlns="http://www.w3.org/2000/svg" width="41.996" height="42" viewBox="0 0 41.996 42">
  <g id="fruits" transform="translate(-16.015 -16)">
    <path id="Path_21" data-name="Path 21" d="M57.311,42.6h-3.5V38.4a11.868,11.868,0,0,0-3.8-8.706,14,14,0,0,1,3.549-4.76.7.7,0,0,0-.452-1.234,11.054,11.054,0,0,0-5.258,1.183,12.455,12.455,0,0,1,.924-1.342,16.177,16.177,0,0,1,1.986-2.107.7.7,0,0,0-.452-1.234,11.254,11.254,0,0,0-4.982,1.046c-.2-1.464-.86-4.05-3.1-5.172a.7.7,0,0,0-.626,0c-2.242,1.121-2.907,3.7-3.1,5.167A11.243,11.243,0,0,0,33.512,20.2a.7.7,0,0,0-.452,1.234,16.172,16.172,0,0,1,1.987,2.107,12.466,12.466,0,0,1,.922,1.339A11.063,11.063,0,0,0,30.713,23.7a.7.7,0,0,0-.452,1.234,13.988,13.988,0,0,1,3.549,4.76,11.868,11.868,0,0,0-3.8,8.706v.08a6.457,6.457,0,0,0-2.34.891,2.06,2.06,0,0,1-.244.157A11.142,11.142,0,0,1,28.5,35.287h0a.7.7,0,1,0-1.165-.776h0A12.28,12.28,0,0,0,26,39.694a1.985,1.985,0,0,1-.651-.324,6.688,6.688,0,0,0-3.032-.972,6.039,6.039,0,0,0-4.649,2.1,7.484,7.484,0,0,0-1.56,6.022l.437,2.938a15.538,15.538,0,0,0,1.795,5.307A6.023,6.023,0,0,0,23.567,58a5.655,5.655,0,0,0,1.527-.211l.047-.015,1.171-.419a.593.593,0,0,1,.4,0l1.171.419.047.015A5.656,5.656,0,0,0,29.46,58a5.807,5.807,0,0,0,4.134-1.777,17.372,17.372,0,0,0,19.473-2.871A13.992,13.992,0,0,0,58.011,43.3.7.7,0,0,0,57.311,42.6ZM38.957,39.09l2.964-2.879,2.97,2.884-2.963,2.874Zm1.61,3.509h-4a6.958,6.958,0,0,0-.361-.835l1.748-1.7ZM45.9,40.071,48.5,42.6H43.289Zm-2.971-4.835,2.962-2.876,2.973,2.887L45.9,38.12Zm.49-7.228a10.424,10.424,0,0,1,3.656,1.25l-1.184,1.15Zm1.467,3.376L41.921,34.26l-2.96-2.874,2.962-2.877Zm-6.927-.973-1.193-1.159A10.421,10.421,0,0,1,40.434,28Zm0,1.951,2.961,2.874-2.965,2.88-2.964-2.871Zm-1.01,6.73-1.528,1.484-.063-.076a5.985,5.985,0,0,0-3.689-2.029l2.317-2.25Zm-.469,10.368.437-2.938a8.46,8.46,0,0,0,0-2.523H53.687a11.513,11.513,0,0,1-3.832,6.453A13.064,13.064,0,0,1,41.212,53.8,12.829,12.829,0,0,1,35.7,52.53a15.834,15.834,0,0,0,.774-3.071ZM51.226,42.6l1.185-1.148V42.6Zm1.185-3.1L49.863,41.97,46.9,39.1l2.963-2.873,2.546,2.473Zm-.156-2.911L50.87,35.247l.784-.761a10.4,10.4,0,0,1,.6,2.105Zm-1.246-3.43-1.144,1.109-2.973-2.887,1.376-1.336a10.579,10.579,0,0,1,2.742,3.114Zm.261-7.928a13.681,13.681,0,0,0-2.387,3.528,11.912,11.912,0,0,0-2-1.171c.009-.109.022-.218.039-.327a7.837,7.837,0,0,1,4.343-2.03Zm-2.8-3.5a11.18,11.18,0,0,0-2.928,5.332,11.808,11.808,0,0,0-2.535-.516c-.082-.255-.187-.543-.321-.853a7.441,7.441,0,0,1,5.784-3.962Zm-6.558-4.228c1.735,1.13,2.037,3.721,2.089,4.541a8.508,8.508,0,0,0-2.09,2.208,8.658,8.658,0,0,0-1.1-1.364,8.509,8.509,0,0,0-.983-.846C39.876,21.223,40.179,18.635,41.912,17.506Zm-6.557,4.23a7.456,7.456,0,0,1,6.152,4.772,11.837,11.837,0,0,0-3.225.559q-.033-.213-.081-.424l.025-.023-.039-.041A11.827,11.827,0,0,0,35.355,21.736Zm-2.8,3.5A7.822,7.822,0,0,1,36.9,27.266c.017.108.03.217.039.326a11.912,11.912,0,0,0-2,1.171A13.676,13.676,0,0,0,32.553,25.233Zm3.012,4.808,1.386,1.345-2.97,2.884-1.158-1.122a10.578,10.578,0,0,1,2.743-3.108Zm-3.39,4.43.8.775-1.412,1.371a10.41,10.41,0,0,1,.611-2.146ZM33.46,54.084A4.647,4.647,0,0,1,29.447,56.6a4.211,4.211,0,0,1-1.114-.151l-1.146-.41a2,2,0,0,0-1.347,0l-1.147.41a4.516,4.516,0,0,1-5.127-2.362,14.141,14.141,0,0,1-1.633-4.831L17.5,46.316a6.091,6.091,0,0,1,1.236-4.9A4.659,4.659,0,0,1,22.321,39.8a5.562,5.562,0,0,1,2.192.691,3.349,3.349,0,0,0,1.378.614c-.034.557-.054,1.047-.064,1.422A2.087,2.087,0,0,1,24.9,42.1l.008.008a.7.7,0,1,0-.989.991,3.721,3.721,0,0,0,2.594.9,3.718,3.718,0,0,0,2.595-.9.7.7,0,0,0-.99-.99,2.113,2.113,0,0,1-.892.415c.012-.423.034-.918.069-1.45a3.357,3.357,0,0,0,1.218-.579A5.566,5.566,0,0,1,30.7,39.8a4.659,4.659,0,0,1,3.589,1.615,6.092,6.092,0,0,1,1.236,4.9l-.437,2.938A14.143,14.143,0,0,1,33.46,54.084Zm18.664-1.767A15.965,15.965,0,0,1,34.486,55.1c.068-.107.134-.217.2-.33q.258-.463.484-.942A14.229,14.229,0,0,0,41.212,55.2a14.462,14.462,0,0,0,9.571-3.7A12.833,12.833,0,0,0,55.1,44h1.48A12.925,12.925,0,0,1,52.124,52.318Z" transform="translate(0)" fill="#4259ff"/>
    <circle id="Ellipse_1" data-name="Ellipse 1" cx="0.7" cy="0.7" r="0.7" transform="translate(49.611 45.398)" fill="#4259ff"/>
    <circle id="Ellipse_2" data-name="Ellipse 2" cx="0.7" cy="0.7" r="0.7" transform="translate(46.112 48.898)" fill="#4259ff"/>
    <circle id="Ellipse_3" data-name="Ellipse 3" cx="0.7" cy="0.7" r="0.7" transform="translate(42.612 46.798)" fill="#4259ff"/>
    <circle id="Ellipse_4" data-name="Ellipse 4" cx="0.7" cy="0.7" r="0.7" transform="translate(38.412 46.798)" fill="#4259ff"/>
    <circle id="Ellipse_5" data-name="Ellipse 5" cx="0.7" cy="0.7" r="0.7" transform="translate(40.512 50.998)" fill="#4259ff"/>
  </g>
</svg>
