<svg xmlns="http://www.w3.org/2000/svg" width="30.54" height="28.142" viewBox="0 0 30.54 28.142">
  <path id="Vector" d="M16.39.71A2.878,2.878,0,0,0,12.6.71L.358,11.356a1.04,1.04,0,0,0,.682,1.823H4.659V23.616A2.886,2.886,0,0,0,7.539,26.5H11V18.425A1.4,1.4,0,0,1,12.4,17.034h4.175a1.4,1.4,0,0,1,1.392,1.392V26.5h3.465a2.886,2.886,0,0,0,2.881-2.881V13.179h3.618a1.043,1.043,0,0,0,.71-1.823Z" transform="translate(0.773 0.895)" fill="none" stroke="#686869" stroke-linecap="round" stroke-linejoin="round" stroke-miterlimit="10" stroke-width="1.5" stroke-dasharray="0 0"/>
</svg>
