<svg xmlns="http://www.w3.org/2000/svg" width="56.027" height="54.072" viewBox="0 0 56.027 54.072">
  <g id="_6" data-name="6" transform="translate(0 0)">
    <path id="Path_39" data-name="Path 39" d="M201.527,187.111a2.928,2.928,0,0,0-2.794-2.918l-2.766-7.091a3.189,3.189,0,0,0-2.99-2.044H182.545a13.111,13.111,0,0,0,4.336-7.117c1.461-5.958-.992-11.7-5.469-12.8a7.931,7.931,0,0,0-6.238.812c.423-2.9,1.8-4.162,3.055-4.364a.977.977,0,1,0-.309-1.93,5.466,5.466,0,0,0-4.178,3.923c-2.152-3.179-6.225-4.4-8.622-4.584a.977.977,0,0,0-1.04,1.13,17.285,17.285,0,0,0,1.707,5.057,7.5,7.5,0,0,0-4.842,4.633,13.241,13.241,0,0,0-.455,8.087,14.276,14.276,0,0,0,1.8,4.3,11.576,11.576,0,0,0,2.524,2.853H154.051a3.189,3.189,0,0,0-2.99,2.044l-2.766,7.091a2.911,2.911,0,0,0-2.032,4.872,2.911,2.911,0,0,0,2.032,4.872l2.734,7.01a3.316,3.316,0,0,0,3.108,2.124H192.89A3.316,3.316,0,0,0,196,200.948l2.734-7.01a2.911,2.911,0,0,0,2.032-4.872A2.91,2.91,0,0,0,201.527,187.111ZM173.1,157.174v.021a.964.964,0,0,0,.066.393c0,.028.01.053.012.081a8.371,8.371,0,0,1-4.971-2.444,9.97,9.97,0,0,1-1.9-4.061C168.434,151.625,172.4,153.041,173.1,157.174Zm-9.158,13.985a12.344,12.344,0,0,1-1.555-3.709,11.28,11.28,0,0,1,.363-6.882,5.565,5.565,0,0,1,3.7-3.542c.227-.055.455-.1.683-.134a10.356,10.356,0,0,0,6.229,2.764q.045,0,.09,0a.892.892,0,0,0,.112-.021.977.977,0,0,0,.923-.389,5.782,5.782,0,0,1,6.459-2.206c3.43.84,5.24,5.521,4.036,10.433s-4.976,8.224-8.4,7.384a4.714,4.714,0,0,1-2.212-1.276.978.978,0,0,0-1.377,0,4.712,4.712,0,0,1-2.214,1.27C168.412,175.425,165.731,173.977,163.944,171.159Zm35.628,15.952a.978.978,0,0,1-.977.977H181.843l-.351-1.954h17.1A.978.978,0,0,1,199.572,187.111Zm-46.691-9.3a1.246,1.246,0,0,1,1.169-.8h38.925a1.246,1.246,0,0,1,1.169.8l2.484,6.367H181.14l-.264-1.472a1.376,1.376,0,0,0-1.356-1.134H167.507a1.377,1.377,0,0,0-1.356,1.134l-.264,1.472H150.4Zm-4.45,8.321h17.1l-.351,1.954H148.432a.977.977,0,0,1,0-1.954ZM198.595,192h-7.736a.977.977,0,0,0,0,1.954h5.77l-2.451,6.287a1.374,1.374,0,0,1-1.287.879H154.137a1.373,1.373,0,0,1-1.287-.879l-2.451-6.287h6.5a.977.977,0,0,0,0-1.954h-8.468a.977.977,0,0,1,0-1.954h16.4l-.262,1.456a.978.978,0,1,0,1.924.345l1.494-8.316h11.049l1.494,8.316a.979.979,0,0,0,.961.805.99.99,0,0,0,.174-.016.978.978,0,0,0,.79-1.135l-.262-1.456h16.4a.977.977,0,1,1,0,1.954Z" transform="translate(-145.5 -148.999)" fill="#fff"/>
    <path id="Path_40" data-name="Path 40" d="M190.138,205.431a1.386,1.386,0,0,0-1.362-1.174h-5.833a1.39,1.39,0,0,0-1.365,1.192l-.646,4.964a.977.977,0,0,0,1.938.251l.579-4.453h4.82l.579,4.453a.977.977,0,0,0,.968.851.932.932,0,0,0,.127-.008.977.977,0,0,0,.843-1.094Z" transform="translate(-157.846 -168.258)" fill="#fff"/>
    <path id="Path_41" data-name="Path 41" d="M196.515,164.964c.839.063,2.5,1.167,2.273,4.18a.976.976,0,0,0,.9,1.047c.025,0,.049,0,.074,0a.977.977,0,0,0,.973-.9c.323-4.325-2.328-6.144-4.076-6.274a.977.977,0,0,0-.146,1.949Z" transform="translate(-162.965 -153.883)" fill="#fff"/>
  </g>
</svg>
