<svg xmlns="http://www.w3.org/2000/svg" width="25.269" height="29.943" viewBox="0 0 25.269 29.943">
  <g id="Group_66708" data-name="Group 66708" transform="translate(0.2 0.205)">
    <g id="Group_15" data-name="Group 15" transform="translate(0 0)">
      <path id="Path_26" data-name="Path 26" d="M116.765,3.445v-1.9a1.484,1.484,0,0,0-.782-1.256,2.222,2.222,0,0,0-1.511-.255L95.688,3.455A1.733,1.733,0,0,0,93.86,4.922V28.061c0,.815.879,1.476,1.963,1.477h20.942c1.084,0,1.962-.662,1.963-1.477V4.922C118.727,4.107,117.849,3.446,116.765,3.445ZM114.78.993a.567.567,0,0,1,.394.071.557.557,0,0,1,.282.482v1.9H101.311Zm2.639,27.068c0,.272-.293.492-.654.492H95.823c-.361,0-.654-.221-.654-.492V4.922c0-.272.293-.492.654-.492h20.942c.361,0,.654.221.654.492Z" transform="translate(-93.86 0.001)" fill="#686869" stroke="#686869" stroke-width="0.4"/>
      <path id="Path_27" data-name="Path 27" d="M275,119.922a1.946,1.946,0,0,0,1.944-1.944V110.2a1.3,1.3,0,0,0,1.3-1.3v-3.888c0-2.832-1.457-4.8-3.8-5.132L273.8,99.8a.648.648,0,0,0-.739.642v17.54A1.946,1.946,0,0,0,275,119.922Zm-.648-18.736c2.337.4,2.592,2.805,2.592,3.833v3.888H276.3a.648.648,0,0,0-.648.648v8.423a.648.648,0,1,1-1.3,0V101.186Z" transform="translate(-258.116 -93.27)" fill="#686869" stroke="#686869" stroke-width="0.4"/>
      <path id="Path_28" data-name="Path 28" d="M171.96,108.466v10.068a1.944,1.944,0,0,0,3.888,0V108.466a2.579,2.579,0,0,0,1.3-2.242V101.04a.648.648,0,1,0-1.3,0v3.24a.648.648,0,1,1-1.3,0v-3.24a.648.648,0,0,0-1.3,0v3.24a.648.648,0,1,1-1.3,0v-3.24a.648.648,0,1,0-1.3,0v5.184A2.578,2.578,0,0,0,171.96,108.466Zm0-2.362a1.883,1.883,0,0,0,1.944-.386,1.883,1.883,0,0,0,1.944.386v.119a1.278,1.278,0,0,1-.857,1.214.648.648,0,0,0-.439.613v10.484a.648.648,0,0,1-1.3,0V108.05a.648.648,0,0,0-.439-.613,1.278,1.278,0,0,1-.857-1.214Z" transform="translate(-164.538 -93.83)" fill="#686869" stroke="#686869" stroke-width="0.4"/>
    </g>
  </g>
</svg>
