<svg xmlns="http://www.w3.org/2000/svg" width="21.765" height="36.275" viewBox="0 0 21.765 36.275">
  <g id="milk" transform="translate(-102.4)">
    <g id="Group_14" data-name="Group 14" transform="translate(102.4)">
      <g id="Group_13" data-name="Group 13">
        <path id="Path_19" data-name="Path 19" d="M123.776,11.115,120.538,4.1V1.209A1.21,1.21,0,0,0,119.329,0H107.237a1.21,1.21,0,0,0-1.209,1.209V4.1l-3.238,7.016h0a4.257,4.257,0,0,0-.39,1.773V34.461a1.816,1.816,0,0,0,1.814,1.814h18.138a1.786,1.786,0,0,0,1.814-1.753V12.888A4.259,4.259,0,0,0,123.776,11.115Zm-3.843-5.44,2.683,5.812h-5.365Zm-12.7-4.466h12.092V3.628H107.237ZM115.7,35.066H104.214a.605.605,0,0,1-.6-.6V18.168a6.054,6.054,0,0,1,5.441,6.015,7.261,7.261,0,0,0,6.65,7.224v3.658Zm0-22.178V30.2a6.054,6.054,0,0,1-5.441-6.015,7.261,7.261,0,0,0-6.65-7.224V12.888c0-.064.006-.128.011-.192h12.092C115.709,12.76,115.7,12.824,115.7,12.888Zm.242-1.4H103.95l3.069-6.65h11.969l-2.9,6.279C116.035,11.236,115.987,11.361,115.943,11.487Zm7.013,23.035a.577.577,0,0,1-.6.544H116.91v-3.6a9.429,9.429,0,0,1,5.422,2.155l.623.52Zm0-1.945a10.636,10.636,0,0,0-6.046-2.321V12.888c0-.064.006-.128.011-.192h6.025c0,.064.011.128.011.192Z" transform="translate(-102.4)" fill="#4259ff"/>
        <path id="Path_20" data-name="Path 20" d="M182.224,76.8c-1.723,0-3.023.78-3.023,1.814v1.814a.6.6,0,0,0,1.209,0v-.35a4.871,4.871,0,0,0,3.628,0v.35a.6.6,0,0,0,1.209,0V78.614C185.247,77.58,183.947,76.8,182.224,76.8Zm0,2.418c-1.171,0-1.814-.454-1.814-.6s.643-.6,1.814-.6,1.814.454,1.814.6S183.394,79.218,182.224,79.218Z" transform="translate(-173.76 -71.359)" fill="#4259ff"/>
      </g>
    </g>
  </g>
</svg>
