<svg xmlns="http://www.w3.org/2000/svg" width="40" height="40" viewBox="0 0 40 40">
  <g id="mortar" transform="translate(-1 -1)">
    <path id="Path_22" data-name="Path 22" d="M34.37,14.706,38.1,6.358a3.589,3.589,0,0,0,.315-1.475v-.27a3.613,3.613,0,0,0-6.576-2.066L23.923,13.912c-7.376.111-15.181,1.554-15.181,4.508V21a16.073,16.073,0,0,0,3.272,9.738,3.224,3.224,0,0,0-1.023.383l-.058-.032a3.2,3.2,0,0,0-.314-.486,2.957,2.957,0,0,0,.058-.571,3.229,3.229,0,0,0-2.623-3.165,4.521,4.521,0,0,0-4.474-3.932H2.935v3.226a4.515,4.515,0,0,0,.094.881,3.212,3.212,0,0,0-.991,5.35,3.183,3.183,0,0,0-.393,1.51,3.215,3.215,0,0,0,1.66,2.8A7.023,7.023,0,0,0,2.29,40.355V41h.645a7.029,7.029,0,0,0,4.373-1.515,3.206,3.206,0,0,0,5.339.163,3.2,3.2,0,0,0,3.563-1.874h.274a4.5,4.5,0,0,0,3.325-1.47A16.1,16.1,0,0,0,41,21V18.419c0-1.994-3.433-3.107-6.63-3.713Zm5.34,3.713c0,.961-3.091,2.235-8.278,2.854l2.4-5.354C38.125,16.7,39.71,17.828,39.71,18.419ZM32.9,3.285a2.322,2.322,0,0,1,4.227,1.328v.27a2.345,2.345,0,0,1-.2.948l-6.977,15.6c-1.547.137-3.241.218-5.079.218-1.664,0-3.214-.065-4.641-.179ZM23.007,15.225l-4.2,6.03c-.017.024-.03.05-.046.074-5.463-.6-8.726-1.921-8.726-2.909C10.032,17.363,14.375,15.475,23.007,15.225ZM11.323,35.194a.645.645,0,1,1-.645.645A.646.646,0,0,1,11.323,35.194Zm-1.445-.63a3.19,3.19,0,0,0-1.855.708,1.934,1.934,0,1,1,3.3-1.368A1.924,1.924,0,0,0,9.877,34.564ZM6.161,32.613a.645.645,0,1,1,.645-.645c0,.007,0,.016,0,.024a3.19,3.19,0,0,0-.312.516.587.587,0,0,1-.33.105Zm3.226-2.581a1.9,1.9,0,0,1-.095.558l-.03.1a3.184,3.184,0,0,0-1.394.385,1.927,1.927,0,0,0-.452-.568,3.193,3.193,0,0,0-.549-2.316,1.927,1.927,0,0,1,2.52,1.842ZM4.226,24.291a3.234,3.234,0,0,1,2.531,2.6,3.215,3.215,0,0,0-.928.358,3.192,3.192,0,0,0-1.53-.436,3.244,3.244,0,0,1-.073-.653Zm0,3.806a1.938,1.938,0,0,1,1.935,1.935,1.924,1.924,0,0,0-1.445.661,3.19,3.19,0,0,0-1.855.708,1.933,1.933,0,0,1,1.365-3.3Zm.011,3.982A1.933,1.933,0,0,0,6.161,33.9a3.206,3.206,0,0,0,.226,1.175A1.921,1.921,0,0,1,2.935,33.9,1.956,1.956,0,0,1,4.237,32.079ZM3.62,39.67A5.722,5.722,0,0,1,4.593,37.1c.093.008.183.028.278.028A3.227,3.227,0,0,0,7.13,36.2c.022.022.046.042.07.063a3.176,3.176,0,0,0-.394,1.51,3.1,3.1,0,0,0,.042.412A5.737,5.737,0,0,1,3.62,39.67Zm6.412.04A1.93,1.93,0,0,1,9.4,35.954a1.933,1.933,0,0,0,1.924,1.82,1.906,1.906,0,0,0,.632-.115c0,.039.013.075.013.115A1.938,1.938,0,0,1,10.032,39.71Zm3.226-1.29c-.022,0-.043-.005-.065-.006a3.218,3.218,0,0,0-.13-1.744,1.9,1.9,0,0,0-.486-2.292,3.193,3.193,0,0,0-.549-2.316,1.927,1.927,0,0,1,2.52,1.842,1.9,1.9,0,0,1-.095.558l-.113.373.277.274a1.934,1.934,0,0,1-1.359,3.312Zm3.226-1.935a3.192,3.192,0,0,0-.643-1.92,3.207,3.207,0,0,1,1.934-.661h1.87A3.231,3.231,0,0,1,16.484,36.484Zm8.387-.645a14.8,14.8,0,0,1-4.311-.65A4.475,4.475,0,0,0,21,33.258v-.645H17.774a4.5,4.5,0,0,0-2.048.492,3.23,3.23,0,0,0-1.878-2.179A14.792,14.792,0,0,1,10.032,21v-.694c2.6,1.732,8.746,2.63,14.839,2.63s12.239-.9,14.839-2.63V21A14.855,14.855,0,0,1,24.871,35.839Z" fill="#4259ff"/>
    <path id="Path_23" data-name="Path 23" d="M56.386,36.1l1.249.326a13.712,13.712,0,0,0,.29-1.415l-1.277-.19a12.374,12.374,0,0,1-.262,1.279Z" transform="translate(-19.653 -12)" fill="#4259ff"/>
    <path id="Path_24" data-name="Path 24" d="M54.935,39.931l1.149.587a13.523,13.523,0,0,0,.6-1.366L55.481,38.7A12.3,12.3,0,0,1,54.935,39.931Z" transform="translate(-19.138 -13.376)" fill="#4259ff"/>
    <path id="Path_25" data-name="Path 25" d="M38,47.976v1.29a13.533,13.533,0,0,0,11.3-6.075l-1.075-.713A12.248,12.248,0,0,1,38,47.976Z" transform="translate(-13.129 -14.718)" fill="#4259ff"/>
  </g>
</svg>
