<svg xmlns="http://www.w3.org/2000/svg" width="29.694" height="31.409" viewBox="0 0 29.694 31.409">
  <g id="Group_66712" data-name="Group 66712" transform="translate(-1330.556 -722.726)">
    <g id="Group_66710" data-name="Group 66710" transform="translate(1352.434 733.83)">
      <path id="Path_32" data-name="Path 32" d="M188.245,109.81A11.552,11.552,0,0,0,186,116.763" transform="translate(-184.999 -107.725)" fill="none" stroke="#686869" stroke-linecap="round" stroke-miterlimit="10" stroke-width="1.5"/>
      <path id="Path_33" data-name="Path 33" d="M181.245,101.515a2.1,2.1,0,0,0,1.523-1.476,4.584,4.584,0,0,0,.289-1.119l.56-4.132a.057.057,0,0,0-.068-.065,14.053,14.053,0,0,0-2.228.626,3.752,3.752,0,0,0-2.177,4.9" transform="translate(-178.872 -94.721)" fill="none" stroke="#686869" stroke-linecap="round" stroke-miterlimit="10" stroke-width="1.5"/>
    </g>
    <path id="Path_642" data-name="Path 642" d="M179.443,160.65a1.247,1.247,0,0,1-2.493,0" transform="translate(1175.218 582.292)" fill="none" stroke="#686869" stroke-linecap="round" stroke-miterlimit="10" stroke-width="1.5"/>
    <path id="Path_643" data-name="Path 643" d="M43.276,79.355H27.811A1.81,1.81,0,0,1,26,77.544V56.011A1.81,1.81,0,0,1,27.811,54.2h2.75" transform="translate(1305.306 674.03)" fill="none" stroke="#686869" stroke-linecap="round" stroke-miterlimit="10" stroke-width="1.5"/>
    <path id="Path_644" data-name="Path 644" d="M153,54.21h2.75a1.811,1.811,0,0,1,1.811,1.81v2.75" transform="translate(1195.858 674.021)" fill="none" stroke="#686869" stroke-linecap="round" stroke-miterlimit="10" stroke-width="1.5"/>
    <path id="XMLID_56_" d="M76.513,22.344a.012.012,0,0,1-.012-.012,2.525,2.525,0,1,0-5.05,0,.012.012,0,0,1-.012.012H70.353A1.352,1.352,0,0,0,69,23.7v2.575a.08.08,0,0,0,.08.08h9.789a.08.08,0,0,0,.08-.08V23.7A1.352,1.352,0,0,0,77.6,22.344Z" transform="translate(1268.249 703.676)" fill="none" stroke="#686869" stroke-linecap="round" stroke-miterlimit="10" stroke-width="1.5"/>
    <line id="XMLID_55_" x2="0.415" transform="translate(1342.086 725.882)" fill="none" stroke="#686869" stroke-linecap="round" stroke-miterlimit="10" stroke-width="1.5"/>
    <path id="XMLID_83_" d="M55.57,88.338l.954.988L58.5,87.35" transform="translate(1279.823 645.462)" fill="none" stroke="#686869" stroke-linecap="round" stroke-miterlimit="10" stroke-width="1.5"/>
    <line id="Line_10" data-name="Line 10" x2="7.463" transform="translate(1340.566 732.93)" fill="none" stroke="#686869" stroke-linecap="round" stroke-miterlimit="10" stroke-width="1.5"/>
    <line id="Line_11" data-name="Line 11" x2="4.146" transform="translate(1340.566 735.004)" fill="none" stroke="#686869" stroke-linecap="round" stroke-miterlimit="10" stroke-width="1.5"/>
    <path id="XMLID_84_" d="M55.57,138.338l.954.988L58.5,137.35" transform="translate(1279.823 602.372)" fill="none" stroke="#686869" stroke-linecap="round" stroke-miterlimit="10" stroke-width="1.5"/>
    <line id="Line_12" data-name="Line 12" x2="7.463" transform="translate(1340.566 739.841)" fill="none" stroke="#686869" stroke-linecap="round" stroke-miterlimit="10" stroke-width="1.5"/>
    <line id="Line_13" data-name="Line 13" x2="4.146" transform="translate(1340.566 741.914)" fill="none" stroke="#686869" stroke-linecap="round" stroke-miterlimit="10" stroke-width="1.5"/>
    <path id="XMLID_85_" d="M55.57,188.338l.954.988L58.5,187.35" transform="translate(1279.823 559.282)" fill="none" stroke="#686869" stroke-linecap="round" stroke-miterlimit="10" stroke-width="1.5"/>
    <line id="Line_14" data-name="Line 14" x2="4.699" transform="translate(1340.566 746.751)" fill="none" stroke="#686869" stroke-linecap="round" stroke-miterlimit="10" stroke-width="1.5"/>
    <line id="Line_15" data-name="Line 15" x2="4.146" transform="translate(1340.566 748.824)" fill="none" stroke="#686869" stroke-linecap="round" stroke-miterlimit="10" stroke-width="1.5"/>
    <ellipse id="Ellipse_26" data-name="Ellipse 26" cx="6.357" cy="6.357" rx="6.357" ry="6.357" transform="translate(1346.785 740.67)" fill="none" stroke="#686869" stroke-linecap="round" stroke-miterlimit="10" stroke-width="1.5"/>
  </g>
</svg>
