<svg xmlns="http://www.w3.org/2000/svg" width="45" height="39.194" viewBox="0 0 45 39.194">
  <g id="roast-chicken" transform="translate(0 -18.749)">
    <g id="Group_4" data-name="Group 4" transform="translate(0 18.749)">
      <g id="Group_3" data-name="Group 3" transform="translate(0 0)">
        <path id="Path_11" data-name="Path 11" d="M40.97,46.406c-.876-.438-1.151-1.341-1.6-3.032a16.641,16.641,0,0,0-4.935-8.726,33.539,33.539,0,0,1,2.4-3.083l.18-.2v-.273c0-.139-.023-.261-.033-.393l3.236-3.236h1.151c2.408,0,3.629-1.222,3.629-3.629a2.984,2.984,0,0,0-2.245-2.8,2.76,2.76,0,0,0-2.836-2.281c-2.408,0-3.629,1.222-3.629,3.629v1.877l-3.153,3.153a4.529,4.529,0,0,0-.618.065l-.216.044-.155.155a18.034,18.034,0,0,1-4.621,3.384,25.161,25.161,0,0,0-5.028-.694C9.662,30.362,0,40.93,0,47.781,0,57.827,11.5,57.943,11.613,57.943H27.581c4.326,0,8.8,0,11.789-.748,2.612-.653,4.9-3.356,4.9-5.785A5.612,5.612,0,0,0,40.97,46.406Zm-3.228-21.55V22.378c0-1.608.57-2.177,2.177-2.177a1.366,1.366,0,0,1,1.452,1.452v.726H42.1a1.6,1.6,0,0,1,1.452,1.452c0,1.608-.57,2.177-2.177,2.177H39.619L36.546,29.08a2.967,2.967,0,0,0-.715-.9,3.165,3.165,0,0,0-.9-.51ZM33,28.87a2.733,2.733,0,0,1,1.91.43,2.043,2.043,0,0,1,.647,1.526c-4.988,5.785-5.759,10.12-5.789,10.3l-.01.119A7.258,7.258,0,1,1,22.5,33.991C22.717,33.991,27.826,33.932,33,28.87Zm6.017,26.917c-2.816.7-7.2.7-11.437.7H11.613c-.415,0-10.161-.1-10.161-8.71,0-6.306,9.43-15.968,21.048-15.968a17.217,17.217,0,0,1,2.562.239,10.424,10.424,0,0,1-2.562.487,8.71,8.71,0,1,0,8.71,8.781,18.366,18.366,0,0,1,2.419-5.438,15.15,15.15,0,0,1,4.339,7.864c.456,1.721.85,3.207,2.353,3.959a4.223,4.223,0,0,1,2.5,3.705C42.823,53.2,41.009,55.289,39.017,55.787Z" transform="translate(0 -18.749)" fill="#4259ff"/>
        <path id="Path_12" data-name="Path 12" d="M199.942,227.215c-1.905.635-4.875.688-7.754.688v1.452c3,0,6.1-.059,8.213-.763A3.686,3.686,0,0,0,203.075,225h-1.452A2.238,2.238,0,0,1,199.942,227.215Z" transform="translate(-162.43 -193.064)" fill="#4259ff"/>
        <rect id="Rectangle_19" data-name="Rectangle 19" width="2.177" height="1.452" transform="translate(25.403 34.839)" fill="#4259ff"/>
        <path id="Path_13" data-name="Path 13" d="M107.813,132.369h1.452a4.359,4.359,0,0,1,4.355-4.355v-1.452A5.813,5.813,0,0,0,107.813,132.369Z" transform="translate(-91.119 -109.869)" fill="#4259ff"/>
      </g>
    </g>
  </g>
</svg>
