<svg xmlns="http://www.w3.org/2000/svg" width="42" height="42" viewBox="0 0 42 42">
  <g id="vegetable" transform="translate(-1 -1)">
    <path id="Path_1" data-name="Path 1" d="M43,24.675a9.412,9.412,0,0,0-3.825-7.534,2.882,2.882,0,0,0-1.7-.56,2.852,2.852,0,0,0-2.006.825c-.1-.082-.188-.172-.289-.25a2.817,2.817,0,0,0-1.29-.528l.3-3.285c.007-.079.01-.158.01-.237a2.625,2.625,0,0,0-2.622-2.622H31.4a2.625,2.625,0,0,0-2.622,2.622c0,.079,0,.159.011.238l.3,3.3a2.9,2.9,0,0,0-1.2.509c-.121.091-.229.2-.345.291-.06-.062-.124-.121-.19-.177a3.959,3.959,0,0,0-.7-3.055,4.062,4.062,0,0,0-3.535-6.428,4.047,4.047,0,0,0-2.7-2.548,4.008,4.008,0,0,0-3.4-1.516,4.059,4.059,0,0,0-7.349-.683A4.083,4.083,0,0,0,5.884,6.085a5.443,5.443,0,0,0-3.529,5.076,5.389,5.389,0,0,0,2.37,4.476,4.046,4.046,0,0,0,1.134,4.741,3.923,3.923,0,0,0-.117.944,4.071,4.071,0,0,0,3.577,4.035l1.5,4.2a7.49,7.49,0,0,0-1.925,2.086l-3.549-.789a1.836,1.836,0,0,0-.413-.046,1.9,1.9,0,0,0-1.9,1.9v.268a1.877,1.877,0,0,0,.089.543H3.032a2.032,2.032,0,1,0,0,4.065h.089a1.877,1.877,0,0,0-.089.543v.268a1.9,1.9,0,0,0,1.9,1.9,1.854,1.854,0,0,0,.412-.045l3.55-.789A7.446,7.446,0,0,0,15.226,43h.159a7.483,7.483,0,0,0,1.133-.087L39.747,39.34A3.828,3.828,0,0,0,40.8,32.093,9.369,9.369,0,0,0,43,26.1Zm-8.649-6.443a8.328,8.328,0,0,1,3.229,6.589v2.488a8.364,8.364,0,0,1-1,3.962l-5.432-.836a13.508,13.508,0,0,1-.343-2.995v-2.75a13.486,13.486,0,0,1,.172-2.041c.166.014.331.029.505.029,1.931,0,3.387-.874,3.387-2.032a1.842,1.842,0,0,0-1.209-1.58l.1-1.1a1.42,1.42,0,0,1,.589.263ZM31.4,11.839h.177a1.268,1.268,0,0,1,1.267,1.267,1.084,1.084,0,0,1-.005.115l-.615,6.765.517.166c.593.19.78.44.78.493,0,.169-.721.677-2.032.677s-2.032-.509-2.032-.677c0-.054.187-.3.78-.494l.517-.166-.615-6.765c0-.039,0-.077,0-.115A1.268,1.268,0,0,1,31.4,11.839Zm-2.188,6.153.1,1.074a1.842,1.842,0,0,0-1.209,1.58c0,.747.609,1.37,1.555,1.723a14.925,14.925,0,0,0-.2,2.322v2.75a14.886,14.886,0,0,0,.263,2.774L25.721,29.6a8.157,8.157,0,0,1-.334-2.291V24.82A8.252,8.252,0,0,1,28.7,18.236,1.515,1.515,0,0,1,29.208,17.992ZM21.887,29.009a7.878,7.878,0,0,1-.564-2.91V24.674A8.056,8.056,0,0,1,24.6,18.229a1.527,1.527,0,0,1,.9-.294,1.5,1.5,0,0,1,1.062.44,9.6,9.6,0,0,0-2.527,6.445v2.488a9.488,9.488,0,0,0,.234,2.067Zm.064-20.354.123.7.691-.154a2.7,2.7,0,0,1,2.522,4.536l-.466.475.466.475a2.693,2.693,0,0,1,.778,1.9c0,.02,0,.041,0,.062a2.807,2.807,0,0,0-2.267.5,9.444,9.444,0,0,0-2.862,3.441q-.385-1.2-.8-2.292A9.608,9.608,0,0,1,23.1,13.044l-.424-.528-.423-.529A10.722,10.722,0,0,0,19.3,16.258a42.094,42.094,0,0,0-2.826-5.463l-1.14.733a39.87,39.87,0,0,1,2.254,4.24,11.161,11.161,0,0,0-4.461-.539l.135,1.348c1.019-.1,3.9-.053,5.253,1.323.475,1.167.943,2.447,1.356,3.818a11.467,11.467,0,0,0-4.644-1.073V22a9.106,9.106,0,0,1,4.833,1.44,9.148,9.148,0,0,0-.091,1.236V26.1a9.243,9.243,0,0,0,.4,2.677l-3.852-.593c-.2-.031-.408-.052-.614-.067a2.706,2.706,0,0,1-2.523-3.693l.2-.518-.469-.3a2.7,2.7,0,0,1-.817-3.782l.422-.634-.679-.345a4.06,4.06,0,0,1,.718-7.527l.421-.121.063-.433A2.716,2.716,0,0,1,15.9,8.452a.536.536,0,0,1,.074.009c.047.007.1.013.144.016l.486.039.191-.448a2.7,2.7,0,0,1,5.153.588ZM10.284,24.032H9.806a2.689,2.689,0,0,1-2.523-3.673l.2-.518-.469-.3a2.695,2.695,0,0,1-.818-3.782l.422-.634-.679-.345a4.06,4.06,0,0,1,.717-7.527l.421-.121L7.139,6.7A2.717,2.717,0,0,1,9.806,4.387a.566.566,0,0,1,.076.009c.046.006.092.012.14.016l.488.041L10.7,4a2.7,2.7,0,0,1,5.152.589l.123.7.691-.154a2.484,2.484,0,0,1,1.481.1A4.055,4.055,0,0,0,15.769,7.1,4.083,4.083,0,0,0,11.98,10.15,5.414,5.414,0,0,0,10.822,19.7a4.047,4.047,0,0,0,1.134,4.741,3.917,3.917,0,0,0-.117.944,4.077,4.077,0,0,0,1.323,3.006,7.378,7.378,0,0,0-1.16.447Zm-5.9,8.941V32.7a.552.552,0,0,1,.662-.53l3.224.717c-.079.2-.149.413-.209.625H4.93A.544.544,0,0,1,4.387,32.973ZM2.355,35.548a.679.679,0,0,1,.677-.677H7.808c-.02.224-.034.448-.034.677s.014.454.035.677H3.032a.679.679,0,0,1-.677-.677Zm2.693,3.374a.558.558,0,0,1-.66-.53v-.268a.544.544,0,0,1,.543-.543H8.063c.06.213.131.421.209.625Zm36.6-3.374A2.468,2.468,0,0,1,39.542,38L16.313,41.574a6.11,6.11,0,0,1-.928.071h-.159a6.1,6.1,0,0,1,0-12.194h.159a6.182,6.182,0,0,1,.927.07L39.541,33.1A2.469,2.469,0,0,1,41.645,35.548Zm0-9.449a8.019,8.019,0,0,1-2.311,5.594l-1.346-.207a9.717,9.717,0,0,0,.947-4.178V24.82a9.719,9.719,0,0,0-2.493-6.471,1.5,1.5,0,0,1,1.028-.413,1.517,1.517,0,0,1,.9.3,8.052,8.052,0,0,1,3.275,6.444Z" fill="#4259ff"/>
    <path id="Path_2" data-name="Path 2" d="M21,47h1.355v6.774H21Z" transform="translate(-6.452 -14.839)" fill="#4259ff"/>
    <path id="Path_3" data-name="Path 3" d="M29,47h1.355v6.774H29Z" transform="translate(-9.032 -14.839)" fill="#4259ff"/>
    <path id="Path_4" data-name="Path 4" d="M37,47h1.355v6.774H37Z" transform="translate(-11.613 -14.839)" fill="#4259ff"/>
    <path id="Path_5" data-name="Path 5" d="M45,49h1.355v4.065H45Z" transform="translate(-14.194 -15.484)" fill="#4259ff"/>
    <path id="Path_6" data-name="Path 6" d="M53,50h1.355v2.71H53Z" transform="translate(-16.774 -15.806)" fill="#4259ff"/>
  </g>
</svg>
